<?xml version="1.0" standalone="no"?>
<!DOCTYPE svg PUBLIC "-//W3C//DTD SVG 20010904//EN"
 "http://www.w3.org/TR/2001/REC-SVG-20010904/DTD/svg10.dtd">
<svg version="1.0" xmlns="http://www.w3.org/2000/svg"
 width="512.000000pt" height="512.000000pt" viewBox="0 0 512.000000 512.000000"
 preserveAspectRatio="xMidYMid meet">
<metadata>
Created by potrace 1.11, written by Peter Selinger 2001-2013
</metadata>
<g transform="translate(0.000000,512.000000) scale(0.100000,-0.100000)"
fill="#000000" stroke="none">
<path d="M0 3410 l0 -1710 1710 0 1710 0 0 1710 0 1710 -1710 0 -1710 0 0
-1710z m2980 215 l0 -1065 -208 0 -209 0 -12 43 c-67 229 -221 391 -437 461
-50 16 -52 16 -105 -8 -99 -46 -175 -61 -304 -61 -129 0 -202 15 -305 61 l-56
25 -69 -26 c-199 -75 -333 -214 -401 -417 l-26 -78 -209 0 -209 0 0 1065 0
1065 1275 0 1275 0 0 -1065z"/>
<path d="M1531 4460 c-167 -45 -325 -176 -399 -331 -93 -193 -93 -385 0 -578
31 -64 57 -101 116 -161 141 -142 283 -196 491 -188 91 4 130 11 183 30 189
71 333 217 399 408 20 55 23 85 23 200 0 115 -3 145 -23 200 -66 191 -209 337
-399 408 -95 35 -283 41 -391 12z m573 -872 c-31 -59 -119 -137 -201 -176 -77
-36 -80 -37 -198 -37 -114 1 -124 2 -188 32 -71 33 -176 125 -210 182 l-18 31
416 0 416 0 -17 -32z"/>
<path d="M3620 4147 l0 -223 160 -39 c129 -31 159 -42 155 -55 -2 -8 -74 -290
-160 -626 l-155 -611 0 -547 0 -546 -1267 0 c-714 0 -1263 -4 -1257 -9 5 -4
571 -151 1259 -326 687 -175 1255 -319 1260 -322 7 -2 169 619 429 1639 230
904 418 1651 419 1662 2 16 -46 31 -403 122 -223 57 -413 103 -422 104 -17 0
-18 -17 -18 -223z"/>
<path d="M4481 3383 c-36 -136 -91 -364 -91 -376 0 -9 32 -28 81 -47 70 -29
80 -35 75 -54 -3 -12 -117 -296 -254 -632 l-248 -610 -135 -532 c-74 -293
-138 -532 -143 -532 -4 0 -689 173 -1521 385 -832 212 -1519 385 -1527 385
-19 0 -55 -77 -42 -89 17 -16 3146 -1282 3158 -1278 11 4 1286 3132 1286 3154
0 6 -33 25 -72 41 -173 72 -547 222 -552 222 -3 0 -10 -17 -15 -37z"/>
</g>
</svg>
